<svg xmlns="http://www.w3.org/2000/svg" viewBox="0 0 32 32" width="24px" height="24px" fill="#ffffff"><path fill-rule="evenodd" clip-rule="evenodd" d="M9.1635 11.2207H24.5648C25.1483 11.2207 25.6134 11.2209 26.0114 11.2316C26.0319 11.2321 26.0519 11.2327 26.0716 11.2333C26.0657 11.2521 26.0597 11.2712 26.0536 11.2907C25.9337 11.6704 25.782 12.1101 25.5915 12.6616L23.6936 18.1555C23.5701 18.513 23.4739 18.7912 23.3858 19.0291C23.337 19.1612 23.2958 19.2665 23.2606 19.3513C23.1689 19.3569 23.056 19.3614 22.9151 19.3645C22.6615 19.37 22.3671 19.3701 21.989 19.3701H12.1503C11.7124 19.3701 11.3688 19.37 11.073 19.363C10.9072 19.3591 10.7738 19.3533 10.6652 19.3461C10.6387 19.2406 10.6092 19.1104 10.5757 18.948C10.5159 18.6582 10.4543 18.3201 10.376 17.8893L9.1635 11.2207ZM25.3322 20.811C25.5668 20.3896 25.7689 19.8046 26.0566 18.9718L27.9545 13.4779C28.7034 11.3099 29.0779 10.2259 28.5417 9.47328C28.0054 8.7207 26.8586 8.7207 24.5648 8.7207H9.1945L8.64703 5.81908C8.6301 5.72896 8.60474 5.59398 8.5721 5.47183C8.5319 5.32138 8.45713 5.09241 8.29466 4.85583C8.08724 4.5538 7.79978 4.31551 7.46453 4.16768C7.20193 4.05189 6.96306 4.02088 6.80778 4.00926C6.68167 3.99984 6.54434 3.99994 6.45265 4.00001L4.85363 4.00002C4.02837 4.00002 3.35938 4.66902 3.35938 5.49428C3.35938 6.31953 4.02837 6.98853 4.85363 6.98853H5.82644L6.55768 10.8641L7.9163 18.3365C8.13963 19.5649 8.28178 20.3466 8.57288 20.874C8.68216 21.0719 8.81242 21.234 8.97584 21.3704C9.33675 21.6716 9.79205 21.7913 10.4728 21.8388C10.9215 21.8701 11.4682 21.8701 12.1503 21.8701H21.989C22.6724 21.8701 23.1982 21.8701 23.6213 21.8309C24.115 21.7851 24.469 21.6858 24.7708 21.4708C24.9978 21.309 25.1725 21.0979 25.3322 20.811ZM25.5791 23.8823C25.1845 23.3438 24.5252 23.0645 23.6213 23.0645C22.9319 23.0645 22.3849 23.2269 21.989 23.5429C21.7268 23.7521 21.5309 24.0287 21.4039 24.3701C21.2889 24.6793 21.2305 25.0417 21.2305 25.4553C21.2305 27.0147 22.0618 27.8461 23.6213 27.8461C25.1808 27.8461 26.0121 27.0147 26.0121 25.4553C26.0121 24.7997 25.8652 24.2729 25.5791 23.8823ZM12.6902 24.3701C12.5706 24.0487 12.3899 23.7846 12.1503 23.5802C11.7513 23.2397 11.1888 23.0645 10.4728 23.0645C9.53319 23.0645 8.85791 23.3663 8.46955 23.9473C8.21336 24.3306 8.08203 24.8354 8.08203 25.4553C8.08203 27.0147 8.91335 27.8461 10.4728 27.8461C12.0323 27.8461 12.8636 27.0147 12.8636 25.4553C12.8636 25.0417 12.8052 24.6793 12.6902 24.3701Z"></path></svg>

